<mxfile host="65bd71144e">
    <diagram id="ZVn3NLGWqqx0qEg4DUor" name="Definition">
        <mxGraphModel dx="1441" dy="2329" grid="1" gridSize="10" guides="1" tooltips="1" connect="1" arrows="1" fold="1" page="1" pageScale="1" pageWidth="850" pageHeight="1100" math="0" shadow="0">
            <root>
                <mxCell id="0"/>
                <mxCell id="1" parent="0"/>
                <mxCell id="uvSiOdXKhNY40t-Dyzgn-41" value="" style="rounded=0;whiteSpace=wrap;html=1;fontFamily=Helvetica;fontSize=11;fontColor=default;labelBackgroundColor=default;connectable=0;allowArrows=0;" vertex="1" parent="1">
                    <mxGeometry x="-50" y="-50" width="690" height="680" as="geometry"/>
                </mxCell>
                <mxCell id="uvSiOdXKhNY40t-Dyzgn-25" value="A compiled definition file which provides information about the object dictoinary" style="rounded=1;whiteSpace=wrap;html=1;arcSize=5;verticalAlign=top;align=left;spacingLeft=4;spacingBottom=4;spacingRight=4;spacingTop=4;fillColor=#fff2cc;strokeColor=#d6b656;" vertex="1" parent="1">
                    <mxGeometry x="380" y="320" width="230" height="130" as="geometry"/>
                </mxCell>
                <mxCell id="uvSiOdXKhNY40t-Dyzgn-20" value="Libary to interface with the dictionary on the embedded device" style="rounded=1;whiteSpace=wrap;html=1;arcSize=5;verticalAlign=top;align=left;spacingLeft=4;spacingBottom=4;spacingRight=4;spacingTop=4;fillColor=#fff2cc;strokeColor=#d6b656;" vertex="1" parent="1">
                    <mxGeometry x="380" y="180" width="230" height="120" as="geometry"/>
                </mxCell>
                <mxCell id="uvSiOdXKhNY40t-Dyzgn-19" value="The actual code/definition that runs on embedded device" style="rounded=1;whiteSpace=wrap;html=1;arcSize=6;verticalAlign=top;fillColor=#fff2cc;strokeColor=#d6b656;" vertex="1" parent="1">
                    <mxGeometry x="380" y="-20" width="230" height="180" as="geometry"/>
                </mxCell>
                <mxCell id="uvSiOdXKhNY40t-Dyzgn-13" style="edgeStyle=none;html=1;exitX=1;exitY=0.5;exitDx=0;exitDy=0;entryX=0;entryY=0.5;entryDx=0;entryDy=0;" edge="1" parent="1" source="uvSiOdXKhNY40t-Dyzgn-1" target="uvSiOdXKhNY40t-Dyzgn-2">
                    <mxGeometry relative="1" as="geometry"/>
                </mxCell>
                <mxCell id="uvSiOdXKhNY40t-Dyzgn-1" value="Yaml definition" style="rounded=1;whiteSpace=wrap;html=1;fillColor=#f8cecc;strokeColor=#b85450;" vertex="1" parent="1">
                    <mxGeometry x="-10" y="180" width="120" height="60" as="geometry"/>
                </mxCell>
                <mxCell id="uvSiOdXKhNY40t-Dyzgn-22" style="edgeStyle=orthogonalEdgeStyle;html=1;exitX=1;exitY=0.5;exitDx=0;exitDy=0;entryX=0;entryY=0.5;entryDx=0;entryDy=0;" edge="1" parent="1" source="uvSiOdXKhNY40t-Dyzgn-2" target="uvSiOdXKhNY40t-Dyzgn-4">
                    <mxGeometry relative="1" as="geometry">
                        <Array as="points">
                            <mxPoint x="280" y="210"/>
                            <mxPoint x="280" y="120"/>
                        </Array>
                    </mxGeometry>
                </mxCell>
                <mxCell id="uvSiOdXKhNY40t-Dyzgn-26" style="edgeStyle=orthogonalEdgeStyle;shape=connector;rounded=1;html=1;exitX=1;exitY=0.5;exitDx=0;exitDy=0;strokeColor=default;align=center;verticalAlign=middle;fontFamily=Helvetica;fontSize=11;fontColor=default;labelBackgroundColor=default;endArrow=classic;" edge="1" parent="1" source="uvSiOdXKhNY40t-Dyzgn-2" target="uvSiOdXKhNY40t-Dyzgn-7">
                    <mxGeometry relative="1" as="geometry">
                        <Array as="points">
                            <mxPoint x="280" y="210"/>
                            <mxPoint x="280" y="260"/>
                        </Array>
                    </mxGeometry>
                </mxCell>
                <mxCell id="uvSiOdXKhNY40t-Dyzgn-28" style="edgeStyle=orthogonalEdgeStyle;shape=connector;rounded=1;html=1;exitX=1;exitY=0.5;exitDx=0;exitDy=0;entryX=0;entryY=0.5;entryDx=0;entryDy=0;strokeColor=default;align=center;verticalAlign=middle;fontFamily=Helvetica;fontSize=11;fontColor=default;labelBackgroundColor=default;endArrow=classic;" edge="1" parent="1" source="uvSiOdXKhNY40t-Dyzgn-2" target="uvSiOdXKhNY40t-Dyzgn-5">
                    <mxGeometry relative="1" as="geometry">
                        <Array as="points">
                            <mxPoint x="280" y="210"/>
                            <mxPoint x="280" y="400"/>
                        </Array>
                    </mxGeometry>
                </mxCell>
                <mxCell id="uvSiOdXKhNY40t-Dyzgn-32" style="edgeStyle=orthogonalEdgeStyle;shape=connector;rounded=1;html=1;exitX=1;exitY=0.5;exitDx=0;exitDy=0;entryX=0;entryY=0.5;entryDx=0;entryDy=0;strokeColor=default;align=center;verticalAlign=middle;fontFamily=Helvetica;fontSize=11;fontColor=default;labelBackgroundColor=default;endArrow=classic;" edge="1" parent="1" source="uvSiOdXKhNY40t-Dyzgn-2" target="uvSiOdXKhNY40t-Dyzgn-31">
                    <mxGeometry relative="1" as="geometry">
                        <Array as="points">
                            <mxPoint x="280" y="210"/>
                            <mxPoint x="280" y="535"/>
                        </Array>
                    </mxGeometry>
                </mxCell>
                <mxCell id="uvSiOdXKhNY40t-Dyzgn-37" style="edgeStyle=orthogonalEdgeStyle;shape=connector;rounded=1;html=1;exitX=0.75;exitY=1;exitDx=0;exitDy=0;entryX=1;entryY=0.5;entryDx=0;entryDy=0;strokeColor=default;align=center;verticalAlign=middle;fontFamily=Helvetica;fontSize=11;fontColor=default;labelBackgroundColor=default;endArrow=classic;dashed=1;" edge="1" parent="1" source="uvSiOdXKhNY40t-Dyzgn-2" target="uvSiOdXKhNY40t-Dyzgn-36">
                    <mxGeometry relative="1" as="geometry"/>
                </mxCell>
                <mxCell id="uvSiOdXKhNY40t-Dyzgn-2" value="odin_python" style="rounded=1;whiteSpace=wrap;html=1;fillColor=#e1d5e7;strokeColor=#9673a6;" vertex="1" parent="1">
                    <mxGeometry x="140" y="180" width="120" height="60" as="geometry"/>
                </mxCell>
                <mxCell id="uvSiOdXKhNY40t-Dyzgn-4" value="OD.c/OD.h" style="rounded=1;whiteSpace=wrap;html=1;fillColor=#dae8fc;strokeColor=#6c8ebf;" vertex="1" parent="1">
                    <mxGeometry x="420" y="90" width="120" height="60" as="geometry"/>
                </mxCell>
                <mxCell id="uvSiOdXKhNY40t-Dyzgn-16" value="odin_c" style="rounded=1;whiteSpace=wrap;html=1;fillColor=#e1d5e7;strokeColor=#9673a6;" vertex="1" parent="1">
                    <mxGeometry x="420" y="20" width="120" height="60" as="geometry"/>
                </mxCell>
                <mxCell id="uvSiOdXKhNY40t-Dyzgn-21" value="Generates" style="text;html=1;align=center;verticalAlign=middle;resizable=0;points=[];autosize=1;strokeColor=none;fillColor=none;" vertex="1" parent="1">
                    <mxGeometry x="290" y="90" width="80" height="30" as="geometry"/>
                </mxCell>
                <mxCell id="uvSiOdXKhNY40t-Dyzgn-7" value="ODIN_py" style="rounded=1;whiteSpace=wrap;html=1;fillColor=#dae8fc;strokeColor=#6c8ebf;" vertex="1" parent="1">
                    <mxGeometry x="430" y="230" width="120" height="60" as="geometry"/>
                </mxCell>
                <mxCell id="uvSiOdXKhNY40t-Dyzgn-27" value="Generates" style="text;html=1;align=center;verticalAlign=middle;resizable=0;points=[];autosize=1;strokeColor=none;fillColor=none;" vertex="1" parent="1">
                    <mxGeometry x="290" y="225" width="80" height="30" as="geometry"/>
                </mxCell>
                <mxCell id="uvSiOdXKhNY40t-Dyzgn-5" value="OD.odin" style="rounded=1;whiteSpace=wrap;html=1;fillColor=#dae8fc;strokeColor=#6c8ebf;" vertex="1" parent="1">
                    <mxGeometry x="425" y="370" width="120" height="60" as="geometry"/>
                </mxCell>
                <mxCell id="uvSiOdXKhNY40t-Dyzgn-30" value="Generates" style="text;html=1;align=center;verticalAlign=middle;resizable=0;points=[];autosize=1;strokeColor=none;fillColor=none;" vertex="1" parent="1">
                    <mxGeometry x="290" y="368" width="80" height="30" as="geometry"/>
                </mxCell>
                <mxCell id="uvSiOdXKhNY40t-Dyzgn-31" value="A PDF containing all the items in the dictonary, to be used as a user reference" style="rounded=1;whiteSpace=wrap;html=1;arcSize=5;verticalAlign=top;align=left;spacingLeft=4;spacingBottom=4;spacingRight=4;spacingTop=4;fillColor=#fff2cc;strokeColor=#d6b656;" vertex="1" parent="1">
                    <mxGeometry x="380" y="470" width="230" height="130" as="geometry"/>
                </mxCell>
                <mxCell id="uvSiOdXKhNY40t-Dyzgn-34" value="Generates" style="text;html=1;align=center;verticalAlign=middle;resizable=0;points=[];autosize=1;strokeColor=none;fillColor=none;" vertex="1" parent="1">
                    <mxGeometry x="290" y="500" width="80" height="30" as="geometry"/>
                </mxCell>
                <mxCell id="uvSiOdXKhNY40t-Dyzgn-6" value="OD.pdf" style="rounded=1;whiteSpace=wrap;html=1;fillColor=#dae8fc;strokeColor=#6c8ebf;" vertex="1" parent="1">
                    <mxGeometry x="430" y="530" width="120" height="60" as="geometry"/>
                </mxCell>
                <mxCell id="uvSiOdXKhNY40t-Dyzgn-35" value="The user must define the&lt;br&gt;object dictionary in a yaml format,&lt;br&gt;this is used as a base to generate all the files" style="text;html=1;align=left;verticalAlign=middle;resizable=0;points=[];autosize=1;strokeColor=none;fillColor=none;fontFamily=Helvetica;fontSize=11;fontColor=default;labelBackgroundColor=default;" vertex="1" parent="1">
                    <mxGeometry x="-10" y="120" width="240" height="50" as="geometry"/>
                </mxCell>
                <mxCell id="uvSiOdXKhNY40t-Dyzgn-39" style="edgeStyle=orthogonalEdgeStyle;shape=connector;rounded=1;html=1;exitX=0;exitY=0.5;exitDx=0;exitDy=0;entryX=0.5;entryY=1;entryDx=0;entryDy=0;strokeColor=default;align=center;verticalAlign=middle;fontFamily=Helvetica;fontSize=11;fontColor=default;labelBackgroundColor=default;endArrow=classic;dashed=1;" edge="1" parent="1" source="uvSiOdXKhNY40t-Dyzgn-36" target="uvSiOdXKhNY40t-Dyzgn-1">
                    <mxGeometry relative="1" as="geometry"/>
                </mxCell>
                <mxCell id="uvSiOdXKhNY40t-Dyzgn-36" value="schema.json" style="rounded=1;whiteSpace=wrap;html=1;fillColor=#dae8fc;strokeColor=#6c8ebf;" vertex="1" parent="1">
                    <mxGeometry x="80" y="300" width="120" height="60" as="geometry"/>
                </mxCell>
                <mxCell id="uvSiOdXKhNY40t-Dyzgn-38" value="Generates" style="text;html=1;align=center;verticalAlign=middle;resizable=0;points=[];autosize=1;strokeColor=none;fillColor=none;" vertex="1" parent="1">
                    <mxGeometry x="155" y="255" width="80" height="30" as="geometry"/>
                </mxCell>
                <mxCell id="uvSiOdXKhNY40t-Dyzgn-40" value="Validates" style="text;html=1;align=center;verticalAlign=middle;resizable=0;points=[];autosize=1;strokeColor=none;fillColor=none;" vertex="1" parent="1">
                    <mxGeometry x="40" y="255" width="70" height="30" as="geometry"/>
                </mxCell>
            </root>
        </mxGraphModel>
    </diagram>
    <diagram id="KlEoalr2Zj763GnufPHJ" name="Page-1">
        <mxGraphModel dx="384" dy="799" grid="1" gridSize="10" guides="1" tooltips="1" connect="1" arrows="1" fold="1" page="1" pageScale="1" pageWidth="850" pageHeight="1100" math="0" shadow="0">
            <root>
                <mxCell id="0"/>
                <mxCell id="1" parent="0"/>
                <mxCell id="2" value="Python&lt;br&gt;Enum" style="rounded=1;whiteSpace=wrap;html=1;" parent="1" vertex="1">
                    <mxGeometry x="250" y="360" width="70" height="40" as="geometry"/>
                </mxCell>
                <mxCell id="3" value="Python&lt;br&gt;Enum item" style="rounded=1;whiteSpace=wrap;html=1;" parent="1" vertex="1">
                    <mxGeometry x="210" y="420" width="70" height="40" as="geometry"/>
                </mxCell>
                <mxCell id="7" style="edgeStyle=none;html=1;exitX=0.5;exitY=1;exitDx=0;exitDy=0;entryX=0.5;entryY=0;entryDx=0;entryDy=0;" parent="1" source="4" target="5" edge="1">
                    <mxGeometry relative="1" as="geometry"/>
                </mxCell>
                <mxCell id="8" style="edgeStyle=none;html=1;exitX=0.5;exitY=1;exitDx=0;exitDy=0;entryX=0.5;entryY=0;entryDx=0;entryDy=0;" parent="1" source="4" target="6" edge="1">
                    <mxGeometry relative="1" as="geometry"/>
                </mxCell>
                <mxCell id="4" value="Pydantic&lt;br&gt;BaseClass" style="rounded=1;whiteSpace=wrap;html=1;" parent="1" vertex="1">
                    <mxGeometry x="440" y="320" width="80" height="40" as="geometry"/>
                </mxCell>
                <mxCell id="5" value="Type" style="rounded=1;whiteSpace=wrap;html=1;" parent="1" vertex="1">
                    <mxGeometry x="360" y="400" width="80" height="40" as="geometry"/>
                </mxCell>
                <mxCell id="6" value="&lt;div style=&quot;color: rgb(204, 204, 204); background-color: rgb(31, 31, 31); font-family: Consolas, &amp;quot;Courier New&amp;quot;, monospace; font-size: 14px; line-height: 19px;&quot;&gt;&lt;span style=&quot;color: #4ec9b0;&quot;&gt;StandardCTypesEnum&lt;/span&gt;&lt;/div&gt;" style="rounded=1;whiteSpace=wrap;html=1;" parent="1" vertex="1">
                    <mxGeometry x="480" y="400" width="170" height="40" as="geometry"/>
                </mxCell>
                <mxCell id="24" style="edgeStyle=none;html=1;exitX=0.5;exitY=1;exitDx=0;exitDy=0;entryX=0.5;entryY=0;entryDx=0;entryDy=0;" parent="1" source="9" target="21" edge="1">
                    <mxGeometry relative="1" as="geometry"/>
                </mxCell>
                <mxCell id="9" value="&lt;div style=&quot;color: rgb(204, 204, 204); background-color: rgb(31, 31, 31); font-family: Consolas, &amp;quot;Courier New&amp;quot;, monospace; font-size: 14px; line-height: 19px;&quot;&gt;&lt;span style=&quot;color: #4ec9b0;&quot;&gt;Type registry&lt;/span&gt;&lt;/div&gt;" style="rounded=1;whiteSpace=wrap;html=1;verticalAlign=top;" parent="1" vertex="1">
                    <mxGeometry x="240" y="550" width="190" height="120" as="geometry"/>
                </mxCell>
                <mxCell id="10" value="name:type" style="rounded=1;whiteSpace=wrap;html=1;" parent="1" vertex="1">
                    <mxGeometry x="260" y="590" width="110" height="20" as="geometry"/>
                </mxCell>
                <mxCell id="15" value="name:type" style="rounded=1;whiteSpace=wrap;html=1;" parent="1" vertex="1">
                    <mxGeometry x="270" y="600" width="110" height="20" as="geometry"/>
                </mxCell>
                <mxCell id="16" value="name:type" style="rounded=1;whiteSpace=wrap;html=1;" parent="1" vertex="1">
                    <mxGeometry x="280" y="610" width="110" height="20" as="geometry"/>
                </mxCell>
                <mxCell id="17" value="name:type" style="rounded=1;whiteSpace=wrap;html=1;" parent="1" vertex="1">
                    <mxGeometry x="290" y="620" width="110" height="20" as="geometry"/>
                </mxCell>
                <mxCell id="18" value="name:type" style="rounded=1;whiteSpace=wrap;html=1;" parent="1" vertex="1">
                    <mxGeometry x="300" y="630" width="110" height="20" as="geometry"/>
                </mxCell>
                <mxCell id="21" value="&lt;div style=&quot;color: rgb(204, 204, 204); background-color: rgb(31, 31, 31); font-family: Consolas, &amp;quot;Courier New&amp;quot;, monospace; font-size: 14px; line-height: 19px;&quot;&gt;&lt;span style=&quot;color: #4ec9b0;&quot;&gt;Type&lt;/span&gt;&lt;/div&gt;" style="rounded=1;whiteSpace=wrap;html=1;verticalAlign=top;" parent="1" vertex="1">
                    <mxGeometry x="240" y="760" width="190" height="120" as="geometry"/>
                </mxCell>
                <mxCell id="23" value="base_size" style="rounded=1;whiteSpace=wrap;html=1;" parent="1" vertex="1">
                    <mxGeometry x="280" y="790" width="110" height="20" as="geometry"/>
                </mxCell>
                <mxCell id="25" value="Contains all the available types" style="shape=note;whiteSpace=wrap;html=1;backgroundOutline=1;darkOpacity=0.05;fillColor=#76608a;strokeColor=#432D57;fontColor=#ffffff;" parent="1" vertex="1">
                    <mxGeometry x="510" y="580" width="120" height="80" as="geometry"/>
                </mxCell>
            </root>
        </mxGraphModel>
    </diagram>
    <diagram id="bIAVt54diAfc65Srfzs3" name="Page-2">
        <mxGraphModel dx="384" dy="799" grid="1" gridSize="10" guides="1" tooltips="1" connect="1" arrows="1" fold="1" page="1" pageScale="1" pageWidth="850" pageHeight="1100" math="0" shadow="0">
            <root>
                <mxCell id="0"/>
                <mxCell id="1" parent="0"/>
                <mxCell id="pEOCBfZKAS88x8rsahw--1" value="&lt;div style=&quot;color: rgb(204, 204, 204); background-color: rgb(31, 31, 31); font-family: Consolas, &amp;quot;Courier New&amp;quot;, monospace; font-size: 14px; line-height: 19px;&quot;&gt;&lt;span style=&quot;color: #4ec9b0;&quot;&gt;BaseParameterModel&lt;/span&gt;&lt;/div&gt;" style="rounded=1;whiteSpace=wrap;html=1;" parent="1" vertex="1">
                    <mxGeometry x="400" y="320" width="170" height="40" as="geometry"/>
                </mxCell>
                <mxCell id="pEOCBfZKAS88x8rsahw--6" style="edgeStyle=none;html=1;exitX=0.5;exitY=0;exitDx=0;exitDy=0;entryX=0.25;entryY=1;entryDx=0;entryDy=0;" parent="1" source="pEOCBfZKAS88x8rsahw--2" target="pEOCBfZKAS88x8rsahw--1" edge="1">
                    <mxGeometry relative="1" as="geometry"/>
                </mxCell>
                <mxCell id="pEOCBfZKAS88x8rsahw--2" value="&lt;div style=&quot;color: rgb(204, 204, 204); background-color: rgb(31, 31, 31); font-family: Consolas, &amp;quot;Courier New&amp;quot;, monospace; font-size: 14px; line-height: 19px;&quot;&gt;&lt;span style=&quot;color: #4ec9b0;&quot;&gt;ParameterModel&lt;/span&gt;&lt;/div&gt;" style="rounded=1;whiteSpace=wrap;html=1;" parent="1" vertex="1">
                    <mxGeometry x="290" y="430" width="170" height="40" as="geometry"/>
                </mxCell>
                <mxCell id="pEOCBfZKAS88x8rsahw--7" style="edgeStyle=none;html=1;exitX=0.5;exitY=0;exitDx=0;exitDy=0;entryX=0.75;entryY=1;entryDx=0;entryDy=0;" parent="1" source="pEOCBfZKAS88x8rsahw--3" target="pEOCBfZKAS88x8rsahw--1" edge="1">
                    <mxGeometry relative="1" as="geometry"/>
                </mxCell>
                <mxCell id="pEOCBfZKAS88x8rsahw--3" value="&lt;div style=&quot;color: rgb(204, 204, 204); background-color: rgb(31, 31, 31); font-family: Consolas, &amp;quot;Courier New&amp;quot;, monospace; font-size: 14px; line-height: 19px;&quot;&gt;&lt;span style=&quot;color: #4ec9b0;&quot;&gt;GroupModel&lt;/span&gt;&lt;/div&gt;" style="rounded=1;whiteSpace=wrap;html=1;" parent="1" vertex="1">
                    <mxGeometry x="530" y="440" width="170" height="40" as="geometry"/>
                </mxCell>
            </root>
        </mxGraphModel>
    </diagram>
</mxfile>